<svg xmlns="http://www.w3.org/2000/svg" width="12" height="10" viewBox="0 0 12 10">
  <g id="Icon_ionic-md-contacts" data-name="Icon ionic-md-contacts" transform="translate(-2.25 -4.502)">
    <g id="Group_968" data-name="Group 968" transform="translate(2.25 5.92)">
      <path id="Path_498" data-name="Path 498" d="M7.5,24.183a3.1,3.1,0,0,1-3.052,0,3.6,3.6,0,0,0-2.2,2.635H9.694A3.6,3.6,0,0,0,7.5,24.183Z" transform="translate(-2.25 -18.237)" fill="#45c0be"/>
      <path id="Path_499" data-name="Path 499" d="M7.819,8.44A2.681,2.681,0,1,0,10.5,11.121,2.681,2.681,0,0,0,7.819,8.44Zm0,4.723a2.072,2.072,0,0,1-1.874-1.28H9.693A2.072,2.072,0,0,1,7.819,13.163Z" transform="translate(-4.097 -8.44)" fill="#45c0be"/>
    </g>
    <g id="Group_969" data-name="Group 969" transform="translate(8.268 4.502)">
      <path id="Path_500" data-name="Path 500" d="M20,22.678h3.986a3.314,3.314,0,0,0-2.2-2.433,3.1,3.1,0,0,1-2.594.212,3.553,3.553,0,0,1-.708.884A3.439,3.439,0,0,1,20,22.678Z" transform="translate(-18.001 -14.574)" fill="#45c0be"/>
      <path id="Path_501" data-name="Path 501" d="M18.731,7.946h2.545A2.067,2.067,0,0,1,19.4,9.219a1.926,1.926,0,0,1-.643-.114,3.252,3.252,0,0,1-.165.636,2.683,2.683,0,1,0-1.452-4A3.313,3.313,0,0,1,18.731,7.946Z" transform="translate(-17.142 -4.502)" fill="#45c0be"/>
    </g>
  </g>
</svg>
