<svg xmlns="http://www.w3.org/2000/svg" width="255" height="201" viewBox="0 0 255 201">
  <g id="Group_2" data-name="Group 2" transform="translate(-85 -266)">
    <path id="Path_1" data-name="Path 1" d="M835.558,593.708,847,595.5a37.377,37.377,0,0,0,7.781-16.214c-8.369,6.851-21.1,3.21-31.246,6.951a22.484,22.484,0,0,0-13.451,14.1l-5.594,6.018a37.675,37.675,0,0,0,31.5-1.734,36.393,36.393,0,0,0,7.416-5.324C839.4,596.773,835.558,593.708,835.558,593.708Z" transform="translate(-514.846 -144.848)" fill="#f2f2f2"/>
    <path id="Path_2" data-name="Path 2" d="M839.465,533.594l11.042-3.5a37.379,37.379,0,0,0-.267-17.983c-4.436,9.865-17.451,12.282-24.867,20.156a22.483,22.483,0,0,0-5.75,18.62l-2.323,7.881a37.675,37.675,0,0,0,27.418-15.6,36.4,36.4,0,0,0,4.263-8.073C844.274,534.622,839.465,533.594,839.465,533.594Z" transform="translate(-522.817 -103.039)" fill="#f2f2f2"/>
    <path id="Path_3" data-name="Path 3" d="M517.165,659.884a.448.448,0,0,1-.449.449h-254.1a.449.449,0,0,1,0-.9h254.1a.448.448,0,0,1,.449.449Z" transform="translate(-177.165 -194.733)" fill="#ccc"/>
    <ellipse id="Ellipse_1" data-name="Ellipse 1" cx="81.188" cy="81.338" rx="81.188" ry="81.338" transform="translate(148.022 283.318)" fill="#e6e6e6"/>
    <path id="Path_4" data-name="Path 4" d="M495.882,279.751a69.763,69.763,0,0,1-28.2,56.08c-.585.438-1.182.865-1.782,1.28a69.871,69.871,0,0,1-79.76,0c-.6-.415-1.2-.842-1.782-1.28a69.867,69.867,0,0,1,0-112.16c.585-.438,1.182-.865,1.782-1.28a69.871,69.871,0,0,1,79.76,0c.6.415,1.2.842,1.782,1.28A69.763,69.763,0,0,1,495.882,279.751Z" transform="translate(-196.761 84.755)" fill="#fff"/>
    <path id="Path_22" data-name="Path 22" d="M63.817,0A63.817,63.817,0,1,1,0,63.817,63.817,63.817,0,0,1,63.817,0Z" transform="translate(165.446 300.831)" fill="#45c0be"/>
    <path id="Path_5" data-name="Path 5" d="M532.394,226.365c-.967,0-1.929.025-2.886.068a63.815,63.815,0,0,1-2.7,127.32c1.842.16,3.7.246,5.588.246a63.817,63.817,0,1,0,0-127.635Z" transform="translate(-302.981 74.645)" opacity="0.2"/>
    <path id="Path_6" data-name="Path 6" d="M538.24,213.892a2.081,2.081,0,0,0-2.077,2.077v9.063a2.077,2.077,0,0,0,4.154,0v-9.063A2.081,2.081,0,0,0,538.24,213.892Z" transform="translate(-308.779 82.313)" fill="#fff"/>
    <path id="Path_7" data-name="Path 7" d="M636.5,244.265c-.585-.438-1.182-.865-1.782-1.28a2.075,2.075,0,0,0-1.85.9l-5.1,7.488a2.076,2.076,0,0,0,3.433,2.337l5.1-7.488A2.063,2.063,0,0,0,636.5,244.265Z" transform="translate(-365.591 64.226)" fill="#fff"/>
    <path id="Path_8" data-name="Path 8" d="M692.44,334.669a2.074,2.074,0,0,0-2.7-1.14l-8.4,3.41a2.077,2.077,0,1,0,1.563,3.848l8.4-3.41A2.082,2.082,0,0,0,692.44,334.669Z" transform="translate(-398.362 8.018)" fill="#fff"/>
    <path id="Path_9" data-name="Path 9" d="M439.3,251.375l-5.1-7.488a2.076,2.076,0,0,0-1.85-.9c-.6.415-1.2.842-1.782,1.28a2.063,2.063,0,0,0,.2,1.96l5.1,7.488a2.076,2.076,0,1,0,3.433-2.337Z" transform="translate(-242.938 64.226)" fill="#fff"/>
    <path id="Path_10" data-name="Path 10" d="M380.3,336.939l-8.4-3.41a2.077,2.077,0,0,0-1.563,3.848l8.4,3.41a2.077,2.077,0,1,0,1.563-3.848Z" transform="translate(-204.731 8.017)" fill="#fff"/>
    <path id="Path_11" data-name="Path 11" d="M538.24,540.892a2.081,2.081,0,0,0-2.077,2.077v9.063a2.077,2.077,0,1,0,4.154,0v-9.063A2.081,2.081,0,0,0,538.24,540.892Z" transform="translate(-308.779 -121.008)" fill="#fff"/>
    <path id="Path_12" data-name="Path 12" d="M636.3,524.374l-5.1-7.488a2.076,2.076,0,0,0-3.433,2.337l5.1,7.488a2.076,2.076,0,0,0,1.85.9c.6-.415,1.2-.842,1.782-1.28A2.064,2.064,0,0,0,636.3,524.374Z" transform="translate(-365.591 -105.519)" fill="#fff"/>
    <path id="Path_13" data-name="Path 13" d="M691.3,439.939l-8.4-3.41a2.077,2.077,0,1,0-1.563,3.848l8.4,3.41a2.077,2.077,0,0,0,1.563-3.848Z" transform="translate(-398.362 -56.028)" fill="#fff"/>
    <path id="Path_14" data-name="Path 14" d="M438.757,516.338a2.077,2.077,0,0,0-2.885.548l-5.1,7.488a2.063,2.063,0,0,0-.2,1.96c.585.438,1.182.865,1.782,1.28a2.076,2.076,0,0,0,1.85-.9l5.1-7.488a2.076,2.076,0,0,0-.548-2.885Z" transform="translate(-242.938 -105.519)" fill="#fff"/>
    <path id="Path_15" data-name="Path 15" d="M381.44,437.669a2.074,2.074,0,0,0-2.7-1.14l-8.4,3.41a2.077,2.077,0,1,0,1.563,3.848l8.4-3.41a2.082,2.082,0,0,0,1.14-2.708Z" transform="translate(-204.731 -56.027)" fill="#fff"/>
    <path id="Path_16" data-name="Path 16" d="M473.841,386.206a4.348,4.348,0,0,1-3.553,5.009l-36.855,6.269a4.343,4.343,0,0,1-1.456-8.562l36.855-6.269a4.347,4.347,0,0,1,5.009,3.553Z" transform="translate(-241.673 -22.579)" fill="#3f3d56"/>
    <path id="Path_17" data-name="Path 17" d="M578.147,427.462a2.835,2.835,0,0,1-4.005.016l-39.674-39.362a2.832,2.832,0,1,1,3.989-4.021l39.674,39.363A2.835,2.835,0,0,1,578.147,427.462Z" transform="translate(-307.218 -22.973)" fill="#3f3d56"/>
    <circle id="Ellipse_3" data-name="Ellipse 3" cx="4.909" cy="4.909" r="4.909" transform="translate(224.363 359.744)" fill="#ccc"/>
    <path id="Path_18" data-name="Path 18" d="M382.846,147.414c-7.535,11.847-19.032,19.709-33.211,24.874a2.666,2.666,0,0,1-3.731-.536h0A23.414,23.414,0,1,1,383.169,143.4l.213.284A2.666,2.666,0,0,1,382.846,147.414Z" transform="translate(-187.352 131.969)" fill="#e6e6e6"/>
    <path id="Path_19" data-name="Path 19" d="M628.624,143.4a23.414,23.414,0,1,1,37.265,28.354h0a2.665,2.665,0,0,1-3.731.536c-13.163-5.039-23.957-13.76-33.211-24.874a2.666,2.666,0,0,1-.536-3.731Z" transform="translate(-365.924 131.969)" fill="#e6e6e6"/>
    <path id="Path_20" data-name="Path 20" d="M619.356,580.727a2.08,2.08,0,0,0-.8,2.827l11.986,21.419a2.077,2.077,0,1,0,3.625-2.028l-11.986-21.419a2.08,2.08,0,0,0-2.827-.8Z" transform="translate(-359.919 -145.583)" fill="#e6e6e6"/>
    <path id="Path_21" data-name="Path 21" d="M433.542,581.522l-11.986,21.42a2.077,2.077,0,1,0,3.625,2.028l11.986-21.419a2.077,2.077,0,1,0-3.625-2.028Z" transform="translate(-237.262 -145.58)" fill="#e6e6e6"/>
    <circle id="Ellipse_4" data-name="Ellipse 4" cx="6.419" cy="6.419" r="6.419" transform="translate(266.63 452.035)" fill="#e6e6e6"/>
    <circle id="Ellipse_5" data-name="Ellipse 5" cx="6.419" cy="6.419" r="6.419" transform="translate(271.159 287.472)" fill="#e6e6e6"/>
    <circle id="Ellipse_6" data-name="Ellipse 6" cx="6.419" cy="6.419" r="6.419" transform="translate(222.475 272.367)" fill="#e6e6e6"/>
    <circle id="Ellipse_7" data-name="Ellipse 7" cx="6.419" cy="6.419" r="6.419" transform="translate(176.056 286.717)" fill="#e6e6e6"/>
    <circle id="Ellipse_8" data-name="Ellipse 8" cx="6.419" cy="6.419" r="6.419" transform="translate(180.207 452.035)" fill="#e6e6e6"/>
    <g id="Group_1" data-name="Group 1" transform="translate(88.774 360.418)">
      <path id="Path_28" data-name="Path 28" d="M600.881,421.907a3.035,3.035,0,0,0-1.523,3.95,2.908,2.908,0,0,0,.232.422l-6.347,8.475,3.167,4.734,7.44-12.55a3.027,3.027,0,0,0,.921-3.579,2.9,2.9,0,0,0-3.818-1.485Z" transform="translate(-551.103 -387.829)" fill="#ffb6b6"/>
      <path id="Path_29" data-name="Path 29" d="M561.018,441.14c.415.368-.737.823-1.956.106-.349-.208-.5-.294-.537-.239a12.114,12.114,0,0,1,.321,3.394c-.094,1.34-2.32,3.86-4.848,6.318-3.417,3.323-7.392,6.529-7.392,6.529l-1.4-1.117-14.63-11.73-2.469-3.418a24.313,24.313,0,0,1,1.015-3.97,43.279,43.279,0,0,1,2.2-5.228c.455-.921.921-1.8,1.368-2.606l7.838,8.638,6.569,7.235s1.913-3.08,3.394-3.919a1.412,1.412,0,0,1,.627-.216c1.5-.071,1.587-.886-.149-2.661s.455-.118,2-.6,0,0,.325-1.2,4.656-3.594,4.656-3.594l.18.161,3.273,2.889.937.827s-1.023,2.806-1.305,3.4S560.607,440.768,561.018,441.14Z" transform="translate(-511.245 -392.45)" fill="#45c0be"/>
      <path id="Path_30" data-name="Path 30" d="M584.506,417.488l.159-4.323-16.6-2.672-.236,6.38Z" transform="translate(-448.465 -314.354)" fill="#ffb6b6"/>
      <path id="Path_31" data-name="Path 31" d="M827.225,581.66l-.157-6.922,2.959.109,4.777-6.4a1.849,1.849,0,0,1,3.33,1.175l-.3,8.222-2.979,1.309,2.906.661-.114,3.1Z" transform="translate(-694.197 -477.223)" fill="#2f2e41"/>
      <path id="Path_32" data-name="Path 32" d="M594.489,570.637l52.573,1.333s22.7,1.311,28.03-2.154l5.617-.709.3-8.251a15.835,15.835,0,0,1-5.41-.895c-1.975-.92-.6-2.046-2.485-.939s-1.684,1.24-3.14.731-68.214-10.684-68.214-10.684Z" transform="translate(-551.866 -465.819)" fill="#2f2e41"/>
      <path id="Path_33" data-name="Path 33" d="M529.973,397.91l3.057-3.06L522.68,381.6l-4.512,4.517Z" transform="translate(-418.072 -296.673)" fill="#ffb6b6"/>
      <path id="Path_34" data-name="Path 34" d="M765.053,580.391l4.592-5.181,2.095,2.093,7.854-1.442a1.85,1.85,0,0,1,1.643,3.126l-5.815,5.821-3.074-1.066,1.681,2.462-2.192,2.195Z" transform="translate(-656.246 -481.816)" fill="#2f2e41"/>
      <path id="Path_35" data-name="Path 35" d="M541.035,507.246l.523,12.149c.615,14.3,16.366,22.959,28.58,15.491q.338-.206.678-.428s4.63-1.243,4.49-3.213.991-2.928,1.992-2.391S591.4,510.791,591.4,510.791s27.231,13.584,33.239,16.781c0,0,5.648-8.831,5.239-8.739s-33.688-23.2-33.688-23.2-5.422-5.487-12.147-1.864c-.14.532-.02.551-.02.551l-22.216,18.1-3.139-5.961Z" transform="translate(-519.154 -431.22)" fill="#2f2e41"/>
      <path id="Path_36" data-name="Path 36" d="M552.393,437.815a12.558,12.558,0,0,1-.239,1.67,9.85,9.85,0,0,1-.768,2.3s0,.819-1.568,3.563.392,1.568,1.568,3.606,0,1.1-1.305,2.406a3,3,0,0,0-.741,2.951s-16.837.012-19.972-1.164-3.849-7.8-1.039-8.454-.85-1.305-2.5-2.814,1.65-3.978,1.65-3.978-1.36-2.348-1.246-10.229a15.539,15.539,0,0,1,.2-2.163,24.326,24.326,0,0,1,1.015-3.97,43.267,43.267,0,0,1,2.2-5.228c.455-.921.921-1.8,1.368-2.606.07-.125.137-.247.208-.368.85-1.505,1.626-2.736,2.14-3.523.4-.611.635-.956.635-.956l2.853-4.962,9.524,4.464-.541,7.3,1.642,5.506.756,2.536.584,1.956.9,3.03s-.247.012.047.415a13.382,13.382,0,0,1,2.551,6.141A12.5,12.5,0,0,1,552.393,437.815Z" transform="translate(-509.565 -376.978)" fill="#45c0be"/>
      <path id="Path_37" data-name="Path 37" d="M629.664,433.972l-.179-.058-22.795-7.34,8.4-27.557a3.79,3.79,0,0,1,5.553-2.158l14.567,8.606a5.71,5.71,0,0,1,2.452,6.9Z" transform="translate(-559.333 -372.348)" fill="#2f2e41"/>
      <path id="Path_38" data-name="Path 38" d="M629.895,438.484l-22.978-7.4,8.4-27.557a3.79,3.79,0,0,1,5.554-2.158l15.262,7.62c2.293,1.354,2.239,4.86,1.175,7.736Z" transform="translate(-559.471 -375.109)" fill="#45c0be"/>
      <path id="Path_39" data-name="Path 39" d="M626.565,444.881a4.381,4.381,0,0,1-3.512.349l-14.687-4.73a4.541,4.541,0,0,1-2.939-5.623l7.363-24.157a3.79,3.79,0,0,1,4.808-2.5l15.22,5a5.713,5.713,0,0,1,3.6,7.357l-7.873,21.949a4.386,4.386,0,0,1-1.976,2.352Z" transform="translate(-558.441 -379.511)" fill="#3f3d56"/>
      <circle id="Ellipse_10" data-name="Ellipse 10" cx="10.519" cy="10.519" r="10.519" transform="translate(25.754 5.966)" fill="#ffb6b6"/>
      <path id="Path_40" data-name="Path 40" d="M485.346,361.686a9.123,9.123,0,0,0,4.48,4.188,10.489,10.489,0,0,0,2.414.764,9.437,9.437,0,0,1,1.117-2.645,7.793,7.793,0,0,0,0,2.794,9.273,9.273,0,0,0,3.75-.465,8.042,8.042,0,0,0,5.057-5.124c.838-2.788-.065-5.767-.136-8.677s1.309-6.392,4.2-6.753c2.2-.275,1.928-.061,3.51,1.493-2.212,2.457,3.18,13.339,6.074,12.859,1.636-.272,2.84-1.571,3.163-1.526,1.657,4.057-3.327,9.812.626,11.7l-.293-.388c-2.069-3.418,4.053-9.191,1.984-12.609-.577-.956-1.177-2.077-.82-3.135.339-1.006,2.054-1.324,2.416-.409a3.938,3.938,0,0,1,3.235-4.774c1.938-.191,1.826.361,3.674.865a9.426,9.426,0,0,1,1.012-2.264,7.728,7.728,0,0,0-.054,2.443,3.047,3.047,0,0,0,1.917-.406c1.706-1.023,1.757-3.663.585-5.27s-3.141-2.4-5.039-3c-.017-4.013-10.815-5.934-12.8-2.2-.2-3.021-3.667-5.056-6.65-4.543s-5.336,2.905-6.771,5.571-2.147,5.647-3.2,8.484-2.551,5.667-5.066,7.35-6.251,1.834-8.35-.345A6.661,6.661,0,0,0,485.346,361.686Z" transform="translate(-484.644 -334.523)" fill="#2f2e41"/>
      <path id="Path_48" data-name="Path 48" d="M626.665,461.2a3.035,3.035,0,0,0-2.924,3.061,2.9,2.9,0,0,0,.052.479l-9.118,5.383,1.1,5.588,11.693-8.725a3.027,3.027,0,0,0,2.226-2.949,2.9,2.9,0,0,0-2.953-2.839Z" transform="translate(-564.219 -412.044)" fill="#ffb6b6"/>
      <path id="Path_49" data-name="Path 49" d="M578.366,453.955c-.244-.327-.349-.464-.4-.426a12.16,12.16,0,0,1-1.01,3.253c-1.414,2.827-16.237,7.156-16.237,7.156L558.89,460.6l-8.027-14.683L548.1,434.145a5.249,5.249,0,0,1-.14-1.252,49.741,49.741,0,0,1,7.827-4.505,5.24,5.24,0,0,1,2.352,2.8l5.526,15.494,2.205,6.186s3.89-2.781,5.3-2.271,1.809-.207.888-2.512.461.068,2.07.219,0,0,.761-.978,5.683-1.529,5.683-1.529l.1.218,1.907,3.923.546,1.127s-2.022,2.194-2.51,2.631-.641.41-.4.912S579.213,455.085,578.366,453.955Z" transform="translate(-523.389 -391.965)" fill="#45c0be"/>
    </g>
  </g>
</svg>
