<svg xmlns="http://www.w3.org/2000/svg" width="31.393" height="31.393" viewBox="0 0 31.393 31.393">
  <g id="Icon_feather-eye-off" data-name="Icon feather-eye-off" transform="translate(0.621 0.621)">
    <path id="Path_345" data-name="Path 345" d="M22.406,21.813a13.141,13.141,0,0,1-7.331,2.337C6.436,24.15,1.5,15.075,1.5,15.075A21.511,21.511,0,0,1,7.745,8.337m4.739-2.065A12.2,12.2,0,0,1,15.075,6c8.639,0,13.575,9.075,13.575,9.075a20.986,20.986,0,0,1-2.666,3.619M17.691,17.48a3.916,3.916,0,0,1-3.625.977A3.565,3.565,0,0,1,11.4,16a3.23,3.23,0,0,1,1.063-3.332" transform="translate(0 0)" fill="none" stroke="#fff" stroke-linecap="round" stroke-linejoin="round" stroke-width="3"/>
    <path id="Path_346" data-name="Path 346" d="M1.5,1.5,28.65,28.65" fill="none" stroke="#fff" stroke-linecap="round" stroke-linejoin="round" stroke-width="3"/>
  </g>
</svg>
