<svg xmlns="http://www.w3.org/2000/svg" width="18.969" height="29.712" viewBox="0 0 18.969 29.712">
  <path id="Icon_metro-location" data-name="Icon metro-location" d="M16.839,1.928a8.484,8.484,0,0,0-8.484,8.484c0,8.484,8.484,18.666,8.484,18.666S25.324,18.9,25.324,10.412a8.484,8.484,0,0,0-8.484-8.484Zm0,13.681a5.2,5.2,0,1,1,5.2-5.2A5.2,5.2,0,0,1,16.839,15.609Zm-3.288-5.2A3.288,3.288,0,1,1,16.839,13.7,3.288,3.288,0,0,1,13.551,10.412Z" transform="translate(-7.355 -0.928)" fill="none" stroke="#fff" stroke-width="2"/>
</svg>
