<svg xmlns="http://www.w3.org/2000/svg" width="150.769" height="275.255" viewBox="0 0 150.769 275.255">
  <g id="Group_8" data-name="Group 8" transform="translate(148 -298)">
    <g id="Group_7" data-name="Group 7">
      <g id="Group_5" data-name="Group 5">
        <g id="Group_2" data-name="Group 2" transform="translate(-217 -13.346)">
          <g id="Group_1" data-name="Group 1">
            <path id="Subtraction_1" data-name="Subtraction 1" d="M51.538,74.616h0L0,50,25.632,38.692,75.385,60.7l49.949-22.1L75.385,13.915,25.952,38.349,0,23.846,51.539,0,75.023,12.371,99.23,0l51.539,25.3L125.384,38.462,150.769,50,99.23,74.615,76.153,62.308,51.539,74.615Z" transform="translate(69 476.846)" fill="#6e9995"/>
            <path id="Path_2" data-name="Path 2" d="M22.5,423.116l49.949-22.1L22.5,376.331Z" transform="translate(121.885 114.43)" fill="#618c8a"/>
            <path id="Path_3" data-name="Path 3" d="M72.449,423.116,22.5,401.021l49.949-24.69Z" transform="translate(71.935 114.43)" fill="#486664"/>
          </g>
          <path id="Path_4" data-name="Path 4" d="M23.567,424.126l-1.052,47.338,52.09-23.3V422.776L46.5,436.268Z" transform="translate(121.885 115.136)" fill="#486664"/>
          <path id="Path_5" data-name="Path 5" d="M75.956,424.148,74.465,471.8,22.5,448.163V422.776l28.1,13.492Z" transform="translate(69.935 114.77)" fill="#45c0be"/>
        </g>
        <g id="Group_4" data-name="Group 4">
          <path id="Path_8" data-name="Path 8" d="M-55.185,340.706l-5.6,18.395-14.4,8.8,5.6,13.6-5.6,19.781,14.4,11.41,4.218,14.4h17.376l15.387,10.6,12.881-10.6,18.762,1.356,4.48-15.752,15.466-10.742L21.325,384.5l6.462-17.232L12.321,356.709l-4.48-16.155H-10.921L-23.8,329.568l-14.324,10.986Z" transform="translate(-51.821 -14.568)" fill="#45c0be"/>
          <g id="Group_3" data-name="Group 3" transform="translate(-51.5 -14)">
            <line id="Line_1" data-name="Line 1" y2="30" transform="translate(-32.5 446.5)" fill="none" stroke="#45c0be" stroke-width="1"/>
            <line id="Line_2" data-name="Line 2" y2="14" transform="translate(-24.5 452.5)" fill="none" stroke="#45c0be" stroke-width="1"/>
            <line id="Line_3" data-name="Line 3" y2="26" transform="translate(-16.5 439.5)" fill="none" stroke="#45c0be" stroke-width="1"/>
            <line id="Line_4" data-name="Line 4" y2="6" transform="translate(-16.5 471.5)" fill="none" stroke="#45c0be" stroke-width="1"/>
            <line id="Line_5" data-name="Line 5" x2="6" y2="17" transform="translate(-8.5 435.5)" fill="none" stroke="#45c0be" stroke-width="1"/>
            <line id="Line_6" data-name="Line 6" x1="7" y2="17" transform="translate(-47.5 435.5)" fill="none" stroke="#45c0be" stroke-width="1"/>
            <line id="Line_7" data-name="Line 7" x2="14" y2="10" transform="translate(19.5 415.5)" fill="none" stroke="#45c0be" stroke-width="1"/>
            <line id="Line_8" data-name="Line 8" x2="18" transform="translate(29.5 383.5)" fill="none" stroke="#45c0be" stroke-width="1"/>
            <line id="Line_9" data-name="Line 9" x1="15" y2="11" transform="translate(18.5 341.5)" fill="none" stroke="#45c0be" stroke-width="1"/>
            <line id="Line_10" data-name="Line 10" x1="6" y2="18" transform="translate(-8.5 315.5)" fill="none" stroke="#45c0be" stroke-width="1"/>
            <line id="Line_11" data-name="Line 11" x2="6" y2="16" transform="translate(-47.5 315.5)" fill="none" stroke="#45c0be" stroke-width="1"/>
            <line id="Line_12" data-name="Line 12" x2="15" y2="11" transform="translate(-82.5 341.5)" fill="none" stroke="#45c0be" stroke-width="1"/>
            <line id="Line_13" data-name="Line 13" x1="18" transform="translate(-96.5 383.5)" fill="none" stroke="#45c0be" stroke-width="1"/>
            <line id="Line_14" data-name="Line 14" x1="14" y2="11" transform="translate(-82.5 415.5)" fill="none" stroke="#45c0be" stroke-width="1"/>
            <path id="Path_9" data-name="Path 9" d="M-62.58,432.329" fill="none" stroke="#707070" stroke-width="1"/>
            <path id="Path_10" data-name="Path 10" d="M14.861,450.907l.179-4.641v-1.294h-.848v-.937H13.076v-1.026h-.848v-.937H11.112V441H10.086v-.982H8.033v-1.071h3.079v-.893h.759v-.982h.848v-1.562h1.25V429h.893v2.142h.982v3.927h.982V436h1.16v1.071h.759v.982h1.2v.893H22.8v1.071h-.893V441H19.948v.848h-.982v1.16h-.982v1.026h-.937v1.83h-.982v5.043Z" fill="#daf2f2"/>
            <path id="Path_11" data-name="Path 11" d="M11.68,440.7l.1-2.479v-.691h-.453v-.5h-.6v-.548h-.453v-.5h-.6v-.572H9.129v-.525h-1.1v-.572H9.678v-.477h.405v-.524h.453v-.834H11.2V429h.477v1.144H12.2v2.1h.524v.5h.62v.572h.405v.524H14.4v.477h1.526v.572h-.477v.525H14.4v.453h-.524v.62h-.524v.548h-.5v.977h-.524V440.7Z" transform="translate(28 -32)" fill="#daf2f2"/>
            <path id="Path_12" data-name="Path 12" d="M12.315,442.737l.112-2.911v-.812H11.9v-.588h-.7v-.644h-.532V437.2h-.7v-.672H9.32v-.616H8.033v-.672H9.964v-.56h.476v-.616h.532v-.98h.784V429h.56v1.343h.616V432.8h.616v.588h.728v.672h.476v.616h.756v.56H17.3v.672h-.56v.616H15.505v.532H14.89v.728h-.616v.644h-.588v1.148h-.616v3.163Z" transform="translate(27.314 -72.733)" fill="#daf2f2"/>
            <path id="Path_13" data-name="Path 13" d="M13.414,446.266l.141-3.658v-1.02h-.668v-.739h-.879v-.809h-.668V439.3H10.46v-.844H9.651v-.774H8.033v-.844H10.46v-.7h.6v-.774h.668v-1.231h.985V429h.7v1.688h.774v3.1h.774v.739h.915v.844h.6v.774h.95v.7h2.251v.844h-.7v.774H17.424v.668H16.65v.915h-.774v.809h-.739v1.442h-.774v3.975Z" transform="translate(2.314 -111.733)" fill="#daf2f2"/>
            <path id="Path_14" data-name="Path 14" d="M11.928,441.5l.1-2.648v-.738h-.484v-.535H10.91v-.586h-.484v-.535H9.789v-.611H9.2v-.56H8.033v-.611H9.789v-.509h.433v-.56h.484v-.891h.713V429h.509v1.222h.56v2.24h.56v.535h.662v.611h.433v.56h.687v.509h1.629v.611H15.95v.56H14.83v.484h-.56v.662h-.56v.586h-.535v1.044h-.56V441.5Z" transform="translate(-36.746 -116.995)" fill="#daf2f2"/>
            <path id="Path_15" data-name="Path 15" d="M16.346,455.674l.217-5.651v-1.576H15.531v-1.141H14.173v-1.25H13.14v-1.141H11.782v-1.3h-1.25v-1.2h-2.5v-1.3h3.749v-1.087h.924v-1.2h1.032v-1.9h1.521V429h1.087V431.6h1.2v4.781h1.2v1.141h1.413v1.3h.924v1.2H22.54v1.087h3.477v1.3H24.931v1.2H22.54v1.032h-1.2v1.413h-1.2v1.25H19.008v2.228h-1.2v6.14Z" transform="translate(-82.057 -113.174)" fill="#daf2f2"/>
            <path id="Path_16" data-name="Path 16" d="M13.642,447l.147-3.813V442.12h-.7v-.77h-.916v-.843h-.7v-.77h-.916v-.88H9.719v-.807H8.033v-.88h2.53v-.733h.623v-.806h.7v-1.283h1.026V429h.733v1.76h.807v3.226h.807v.77h.953v.88h.623v.806h.99v.733h2.346v.88h-.733v.807H17.821v.7h-.807v.953h-.807v.843h-.77v1.5h-.807V447Z" transform="translate(-103.207 -76.495)" fill="#daf2f2"/>
            <path id="Path_17" data-name="Path 17" d="M12.9,444.612l.127-3.308v-.922h-.6v-.668h-.8v-.732h-.6v-.668h-.8v-.763H9.5v-.7H8.033v-.763h2.195v-.636h.541v-.7h.6v-1.113h.891V429H12.9v1.527h.7v2.8h.7v.668h.827v.763h.541v.7h.859v.636H18.56v.763h-.636v.7h-1.4v.6h-.7v.827h-.7v.732h-.668v1.3h-.7v3.594Z" transform="translate(-99.6 -31.112)" fill="#daf2f2"/>
            <path id="Path_18" data-name="Path 18" d="M12.433,443.116l.115-2.991v-.834H12v-.6h-.719v-.661h-.546v-.6h-.719v-.69H9.356V436.1H8.033v-.69h1.984v-.575h.489V434.2h.546v-1.007h.805V429h.575v1.38h.633v2.531H13.7v.6h.748v.69h.489v.633h.776v.575h1.841v.69h-.575v.633H15.711v.546h-.633v.748h-.633v.661h-.6v1.179h-.633v3.25Z" transform="translate(-75.877 2.384)" fill="#daf2f2"/>
          </g>
        </g>
      </g>
    </g>
    <g id="Group_6" data-name="Group 6" transform="translate(3 4.206)">
      <path id="Path_19" data-name="Path 19" d="M-247.263,375.794l1.528,14.281h2.393l2.585-14.281Z" transform="translate(165.263 -23)" fill="#fff"/>
      <circle id="Ellipse_1" data-name="Ellipse 1" cx="3.5" cy="3.5" r="3.5" transform="translate(-83 369)" fill="#fff"/>
    </g>
  </g>
</svg>
