<svg xmlns="http://www.w3.org/2000/svg" width="268.283" height="191" viewBox="0 0 268.283 191">
  <g id="Group_382" data-name="Group 382" transform="translate(-80 -383)">
    <g id="Group_381" data-name="Group 381" transform="translate(80 383)">
      <path id="Path_248" data-name="Path 248" d="M61.83,433.31c4.246,16.474,13.226,30.714,27.417,37.617,29.5,14.346,96.038,6.947,145.7-1.546,25.687-4.393,48.265-16.515,64.666-33.575Z" transform="translate(-58.922 -338.284)" fill="#45c0be" opacity="0.1"/>
      <path id="Path_249" data-name="Path 249" d="M343.521,62.215H316.267a2.149,2.149,0,1,1,0-4.277h4.714a2.149,2.149,0,1,1,0-4.277h-3.364a2.149,2.149,0,1,1,0-4.277h14.225a40.644,40.644,0,0,0-11.1-2.778c-38.791-4.523-52.639-1.531-57.524,1.544a57.22,57.22,0,0,1-19.937,7.936c-23.932,4.483-68.688,9.877-109.254-1.718-20.162-5.774-35.147,3.971-44.128,20.26H348.255a35.3,35.3,0,0,0-3.2-12.932,2.481,2.481,0,0,1-1.533.52Z" transform="translate(-80.104 -44.294)" fill="#45c0be" opacity="0.1"/>
      <path id="Path_250" data-name="Path 250" d="M50.568,293.19a99.138,99.138,0,0,0,1.056,28.741l239.288,7.948a101.88,101.88,0,0,0,16.626-23.023Zm94.641,20.5H140.5a2.149,2.149,0,1,1,0,4.277H113.243a2.149,2.149,0,1,1,0-4.277h4.714a2.149,2.149,0,1,1,0-4.277H114.59a2.149,2.149,0,1,1,0-4.277h27.255a2.149,2.149,0,1,1,0,4.277h3.364a2.149,2.149,0,1,1,0,4.277Z" transform="translate(-49.981 -232.375)" fill="#45c0be" opacity="0.1"/>
      <path id="Path_251" data-name="Path 251" d="M320.058,168.5l-261.28,5.767a87.24,87.24,0,0,0-6.258,24.5H315.48a93.354,93.354,0,0,0,3.8-15.615A67.076,67.076,0,0,0,320.058,168.5ZM105.569,187.408h-4.712a2.15,2.15,0,1,1,0,4.28H73.6a2.15,2.15,0,1,1,0-4.28h4.715a2.149,2.149,0,1,1,0-4.277H74.946a2.149,2.149,0,1,1,0-4.277H102.2a2.149,2.149,0,1,1,0,4.277h3.365a2.149,2.149,0,1,1,0,4.277Z" transform="translate(-51.897 -138.147)" fill="#45c0be" opacity="0.1"/>
      <ellipse id="Ellipse_53" data-name="Ellipse 53" cx="109.216" cy="10.091" rx="109.216" ry="10.091" transform="translate(24.076 170.818)" fill="#45c0be" opacity="0.1"/>
    </g>
    <g id="Icon_feather-wifi-off" data-name="Icon feather-wifi-off" transform="translate(134 406)">
      <path id="Path_332" data-name="Path 332" d="M25.08,16.59A79.857,79.857,0,0,1,41.723,27.466" transform="translate(89.669 56.57)" fill="none" stroke="#45c0be" stroke-linecap="round" stroke-linejoin="round" stroke-width="10"/>
      <path id="Path_333" data-name="Path 333" d="M7.5,32.686A79.857,79.857,0,0,1,45.239,15.24" transform="translate(21.698 51.364)" fill="none" stroke="#45c0be" stroke-linecap="round" stroke-linejoin="round" stroke-width="10"/>
      <path id="Path_334" data-name="Path 334" d="M16.065,7.875a116.793,116.793,0,0,1,86.646,28.833" transform="translate(54.814 21.564)" fill="none" stroke="#45c0be" stroke-linecap="round" stroke-linejoin="round" stroke-width="10"/>
      <path id="Path_335" data-name="Path 335" d="M2.13,30.2A116.136,116.136,0,0,1,36.438,9.18" transform="translate(0.936 28.044)" fill="none" stroke="#45c0be" stroke-linecap="round" stroke-linejoin="round" stroke-width="10"/>
      <path id="Path_336" data-name="Path 336" d="M12.795,30.6a43.8,43.8,0,0,1,50.732,0" transform="translate(42.171 79.327)" fill="none" stroke="#45c0be" stroke-linecap="round" stroke-linejoin="round" stroke-width="10"/>
      <path id="Path_337" data-name="Path 337" d="M18,30h0" transform="translate(62.295 108.134)" fill="none" stroke="#45c0be" stroke-linecap="round" stroke-linejoin="round" stroke-width="10"/>
      <path id="Path_331" data-name="Path 331" d="M1.5,1.5,162.09,161.533" transform="translate(-1.5 -1.5)" fill="none" stroke="#be0202" stroke-linecap="round" stroke-linejoin="round" stroke-width="8"/>
    </g>
    <ellipse id="Ellipse_61" data-name="Ellipse 61" cx="9.867" cy="1.669" rx="9.867" ry="1.669" transform="translate(156.06 554.552)" fill="#45c0be" opacity="0.72"/>
    <path id="Path_302" data-name="Path 302" d="M1052.7,793.414a2.881,2.881,0,0,0,.942-1.421,1.267,1.267,0,0,0-.658-1.445c-.6-.231-1.249.189-1.738.611a2.329,2.329,0,0,1-1.691.815,2.569,2.569,0,0,0,.8-2.407,1.011,1.011,0,0,0-.221-.491c-.336-.358-.942-.206-1.345.076-1.276.9-1.632,2.631-1.639,4.191a7.858,7.858,0,0,1-.022-1.718,1.775,1.775,0,0,0-.648-1.529,1.962,1.962,0,0,0-.981-.231,2.042,2.042,0,0,0-1.6.454,1.578,1.578,0,0,0,.064,1.963,6.368,6.368,0,0,0,1.659,1.33,3.682,3.682,0,0,1,1.188,1.131,1.191,1.191,0,0,1,.088.2h3.595A10,10,0,0,0,1052.7,793.414Z" transform="translate(-882.694 -239.92)" fill="#45c0be" opacity="0.72"/>
    <path id="Path_303" data-name="Path 303" d="M97.91,723.55s1.347,1.762-.623,4.417-3.6,4.908-2.945,6.567c0,0,2.972-4.942,5.4-5.013S100.57,726.522,97.91,723.55Z" transform="translate(14.654 -174.537)" fill="#45c0be"/>
    <path id="Path_304" data-name="Path 304" d="M98.154,723.55a2.207,2.207,0,0,1,.275.552c2.361,2.773,3.617,5.362,1.35,5.426-2.115.061-4.663,3.841-5.259,4.8a2.28,2.28,0,0,0,.074.218s2.972-4.942,5.4-5.013S100.814,726.522,98.154,723.55Z" transform="translate(14.41 -174.537)" opacity="0.1"/>
    <path id="Path_305" data-name="Path 305" d="M118.582,731.464c0,.621-.071,1.124-.157,1.124s-.155-.491-.155-1.124.086-.329.174-.329S118.582,730.843,118.582,731.464Z" transform="translate(-3.512 -180.205)" fill="#ffd037"/>
    <path id="Path_306" data-name="Path 306" d="M119.731,734.415c-.545.3-1.018.476-1.06.4s.368-.375.913-.672.329-.081.371,0S120.286,734.118,119.731,734.415Z" transform="translate(-3.813 -182.416)" fill="#ffd037"/>
    <path id="Path_307" data-name="Path 307" d="M71,723.55s-1.347,1.762.621,4.417,3.6,4.908,2.945,6.567c0,0-2.974-4.942-5.4-5.013S68.335,726.522,71,723.55Z" transform="translate(34.445 -174.537)" fill="#45c0be"/>
    <path id="Path_309" data-name="Path 309" d="M70.1,731.464c0,.621.069,1.124.155,1.124s.155-.491.155-1.124-.086-.329-.172-.329S70.1,730.843,70.1,731.464Z" transform="translate(32.837 -180.205)" fill="#ffd037"/>
    <path id="Path_310" data-name="Path 310" d="M65.575,734.415c.545.3,1.021.476,1.063.4s-.368-.375-.913-.672-.331-.081-.371,0S65.03,734.118,65.575,734.415Z" transform="translate(36.501 -182.416)" fill="#ffd037"/>
    <path id="Path_311" data-name="Path 311" d="M71.85,761.126s3.769-.115,4.908-.925,5.8-1.774,6.081-.491,5.664,6.454,1.409,6.488-9.887-.665-11.021-1.355S71.85,761.126,71.85,761.126Z" transform="translate(31.517 -201.351)" fill="#a8a8a8"/>
    <path id="Path_312" data-name="Path 312" d="M84.319,772.018c-4.255.034-9.887-.665-11.021-1.354-.864-.525-1.207-2.412-1.323-3.283H71.85s.245,3.041,1.372,3.73,6.766,1.389,11.021,1.355c1.227,0,1.652-.449,1.629-1.094C85.7,771.765,85.234,772.011,84.319,772.018Z" transform="translate(31.517 -207.611)" opacity="0.2"/>
  </g>
</svg>
