<svg xmlns="http://www.w3.org/2000/svg" width="268" height="194" viewBox="0 0 268 194">
  <g id="Group_1078" data-name="Group 1078" transform="translate(0 -5.972)">
    <path id="Path_1316" data-name="Path 1316" d="M612.5,567.053h-5.346l-2.544-20.618H612.5Z" transform="translate(-416.799 -377.09)" fill="#9e616a"/>
    <path id="Path_1317" data-name="Path 1317" d="M766.251,740.29h-3.833l-.684-3.619-1.752,3.619H749.814a2.285,2.285,0,0,1-1.3-4.166l8.119-5.607v-3.659l8.54.51Z" transform="translate(-567.73 -541.066)" fill="#2f2e41"/>
    <path id="Path_1318" data-name="Path 1318" d="M690.719,554.4l-4.29,3.19-14.344-15.027,6.331-4.708Z" transform="translate(-463.338 -371.179)" fill="#9e616a"/>
    <path id="Path_1319" data-name="Path 1319" d="M888.352,715.538l-3.076,2.287-2.709-2.5.753,3.95-8.159,6.067a2.285,2.285,0,0,1-3.528-2.568l3.169-9.344L872.62,710.5l7.157-4.687Z" transform="translate(-653.286 -526.573)" fill="#2f2e41"/>
    <path id="Path_1320" data-name="Path 1320" d="M767.672,398.647s10.142,8.762,5.463,33.741l-5.713,24.475,18.631,30.909L780.113,495l-24.221-33.455-8.777-20.588-2.463-36.643Z" transform="translate(-565.794 -315.061)" fill="#2f2e41"/>
    <path id="Path_1321" data-name="Path 1321" d="M598.1,425.746l-.61,9.447,1.867,40.259,8.784-1.53,1.679-28.664Z" transform="translate(-411.898 -293.984)" fill="#2f2e41"/>
    <path id="Path_1322" data-name="Path 1322" d="M237.444,587.439h4.78L244.5,569h-7.055Z" transform="translate(-163.685 -392.629)" fill="#ffb6b6"/>
    <path id="Path_1323" data-name="Path 1323" d="M402.178,746.082h1.345l5.253-2.136,2.815,2.136h0a6,6,0,0,1,6,6v.2H402.178Z" transform="translate(-329.642 -552.832)" fill="#2f2e41"/>
    <path id="Path_1324" data-name="Path 1324" d="M296.932,578.767l4.663,1.053,6.28-17.484-6.882-1.554Z" transform="translate(-204.699 -386.969)" fill="#ffb6b6"/>
    <path id="Path_1325" data-name="Path 1325" d="M459.848,739l1.312.3,5.595-.927,2.276,2.7h0a6,6,0,0,1,4.53,7.173l-.043.19-15.035-3.395Z" transform="translate(-368.459 -548.992)" fill="#2f2e41"/>
    <path id="Path_1326" data-name="Path 1326" d="M383.254,393.843c-2.241,6.759-2,14.1.539,21.971l1.087,44.337s-1.62,29.075,3.606,39.307h7.58l3.753-41.962.471-28.165,16.25,23.762-10.35,45.679,9.329.834,16.8-49.573L411.592,401.94Z" transform="translate(-315.564 -311.753)" fill="#2f2e41"/>
    <path id="Path_1327" data-name="Path 1327" d="M642,318.436c5.8-5.224,14.421-7.851,21.654-4.922a35.957,35.957,0,0,0-16.158,18.664c-1.152,3.064-2.113,6.591-4.946,8.232a8.038,8.038,0,0,1-5.931.578,23.867,23.867,0,0,1-5.574-2.458l-.508-.011C632.818,331.055,636.2,323.66,642,318.436Z" transform="translate(-487.098 -255.069)" fill="#45c0be" opacity="0.45"/>
    <path id="Path_1328" data-name="Path 1328" d="M663.792,315.955a30.733,30.733,0,0,0-17.1,8.075,13.236,13.236,0,0,0-2.6,3.231,7.591,7.591,0,0,0-.877,3.9,15.712,15.712,0,0,1-.067,3.8,4.648,4.648,0,0,1-2.312,3.017,12.076,12.076,0,0,1-4.636,1.266,11.857,11.857,0,0,0-5.151,1.409c-.186.12-.362-.175-.176-.3,2.669-1.73,6.047-1.1,8.918-2.255a4.707,4.707,0,0,0,2.944-2.914,12.194,12.194,0,0,0,.141-3.859,8.1,8.1,0,0,1,.716-3.843,12.237,12.237,0,0,1,2.465-3.319,29.818,29.818,0,0,1,7.578-5.425,31.278,31.278,0,0,1,10.152-3.132c.219-.028.221.316,0,.344Z" transform="translate(-487.278 -257.35)" fill="#fff"/>
    <path id="Path_1329" data-name="Path 1329" d="M684.555,324.524a4.611,4.611,0,0,1,.508-5.949c.158-.155.406.082.249.238a4.27,4.27,0,0,0-.462,5.535c.129.18-.167.355-.3.176Z" transform="translate(-523.7 -259.335)" fill="#fff"/>
    <path id="Path_1330" data-name="Path 1330" d="M669.895,360.617a8.887,8.887,0,0,0,6.351-1.272c.186-.12.362.176.176.3a9.244,9.244,0,0,1-6.611,1.31c-.218-.039-.133-.373.084-.334Z" transform="translate(-514.045 -287.47)" fill="#fff"/>
    <path id="Path_1331" data-name="Path 1331" d="M713.745,321.763a2.61,2.61,0,0,0,1.952,1.524c.219.036.133.37-.084.333a2.925,2.925,0,0,1-2.163-1.681.178.178,0,0,1,.059-.236.173.173,0,0,1,.236.06Z" transform="translate(-544.194 -261.507)" fill="#fff"/>
    <path id="Path_1332" data-name="Path 1332" d="M670.7,376.773c-.137-.019-.274-.038-.414-.055a34.371,34.371,0,0,0-5.569-.283c-.144,0-.29.006-.433.013a36.237,36.237,0,0,0-13,2.993,35.187,35.187,0,0,0-4.722,2.509c-2.083,1.319-4.236,2.914-6.564,3.452a6.039,6.039,0,0,1-.736.131l-9.619-8.329c-.012-.03-.027-.058-.039-.088l-.4-.315.227-.164c.043-.032.088-.062.131-.094s.059-.041.084-.062l.027-.018c.025-.02.051-.036.074-.055q.655-.464,1.319-.92s0,0,.006,0a51.743,51.743,0,0,1,10.775-5.792c.114-.043.23-.089.349-.128a33.582,33.582,0,0,1,5.275-1.484,29.688,29.688,0,0,1,2.975-.415,24.685,24.685,0,0,1,7.7.545,19.6,19.6,0,0,1,12.349,8.231C670.57,376.552,670.637,376.66,670.7,376.773Z" transform="translate(-486.198 -293.192)" fill="#45c0be" opacity="0.45"/>
    <path id="Path_1333" data-name="Path 1333" d="M671.039,387.764a30.733,30.733,0,0,0-18.513-3.847,13.234,13.234,0,0,0-4.02,1.016,7.59,7.59,0,0,0-3.047,2.584,15.716,15.716,0,0,1-2.343,3,4.648,4.648,0,0,1-3.663,1.017,12.076,12.076,0,0,1-4.463-1.78,11.857,11.857,0,0,0-4.961-1.976c-.221-.016-.184-.358.037-.342,3.173.226,5.491,2.762,8.478,3.569a4.707,4.707,0,0,0,4.1-.554,12.189,12.189,0,0,0,2.436-3,8.1,8.1,0,0,1,2.885-2.637,12.236,12.236,0,0,1,3.967-1.166,29.816,29.816,0,0,1,9.316.231,31.279,31.279,0,0,1,9.991,3.611c.192.109-.014.385-.2.277Z" transform="translate(-486.66 -304.085)" fill="#fff"/>
    <path id="Path_1334" data-name="Path 1334" d="M709.2,374.152a4.611,4.611,0,0,1,3.988-4.444c.219-.029.275.31.055.34a4.27,4.27,0,0,0-3.7,4.141c0,.221-.347.183-.342-.037Z" transform="translate(-541.282 -294.642)" fill="#fff"/>
    <path id="Path_1335" data-name="Path 1335" d="M680.192,394.692a8.887,8.887,0,0,0,5.836,2.808c.221.017.184.359-.037.342a9.244,9.244,0,0,1-6.067-2.935C679.774,394.745,680.043,394.53,680.192,394.692Z" transform="translate(-521.074 -311.836)" fill="#fff"/>
    <path id="Path_1336" data-name="Path 1336" d="M740.177,387.771a2.61,2.61,0,0,0,.641,2.392c.153.161-.116.375-.268.216a2.925,2.925,0,0,1-.715-2.645.178.178,0,0,1,.19-.152A.173.173,0,0,1,740.177,387.771Z" transform="translate(-562.346 -306.97)" fill="#fff"/>
    <path id="Path_1337" data-name="Path 1337" d="M184.615,679.693a7.678,7.678,0,0,1-3.07,4.132c-.234.168-.473.324-.716.47-.075.044-.149.09-.227.131s-.168.1-.252.14h-6.736c-.121-.246-.24-.5-.358-.741-2.887-6.066-4.914-12.612-4.568-19.279a24.68,24.68,0,0,1,1.61-7.552,19.586,19.586,0,0,1,9.868-11.086c.115-.053.237-.106.355-.156-.037.134-.075.265-.112.4a34.5,34.5,0,0,0-1.053,5.478c-.019.143-.034.287-.047.433a36.14,36.14,0,0,0,1.158,13.294c0,.009.006.022.009.031q.4,1.434.922,2.824c.274.732.57,1.454.894,2.164C183.644,673.356,185.456,676.532,184.615,679.693Z" transform="translate(-168.648 -485.217)" fill="#45c0be" opacity="0.45"/>
    <path id="Path_1338" data-name="Path 1338" d="M192.147,645.54c-.065.087-.131.171-.2.258a30.559,30.559,0,0,0-3.463,5.842c-.05.1-.1.206-.137.311a30.46,30.46,0,0,0-2.435,9.105.465.465,0,0,0-.006.065c-.078.735-.125,1.476-.143,2.217a13.229,13.229,0,0,0,.445,4.123,7.4,7.4,0,0,0,1.7,2.933c.078.084.156.168.24.249.062.065.131.131.2.193.629.6,1.317,1.158,1.909,1.8a6.673,6.673,0,0,1,.732.934,4.641,4.641,0,0,1,.5,3.768,12.051,12.051,0,0,1-2.382,4.173c-.5.635-1.006,1.277-1.448,1.956-.162.243-.311.489-.448.741h-.392c.131-.252.274-.5.43-.741,1.137-1.791,2.753-3.329,3.59-5.3a4.7,4.7,0,0,0,.022-4.142,5.506,5.506,0,0,0-.757-1.053c-.57-.645-1.252-1.2-1.872-1.778-.156-.146-.308-.3-.455-.452a7.774,7.774,0,0,1-1.756-2.771,12.217,12.217,0,0,1-.6-4.089c0-.884.047-1.775.134-2.659.009-.112.022-.227.034-.343a31.379,31.379,0,0,1,6.125-15.33c.062-.087.128-.171.193-.255C192.035,645.125,192.281,645.368,192.147,645.54Z" transform="translate(-180.191 -484.864)" fill="#fff"/>
    <path id="Path_1339" data-name="Path 1339" d="M177.858,686.206a4.611,4.611,0,0,1-3.847-4.566.172.172,0,0,1,.344-.008,4.27,4.27,0,0,0,3.587,4.24c.218.036.133.369-.084.333Z" transform="translate(-172.341 -509.812)" fill="#fff"/>
    <path id="Path_1340" data-name="Path 1340" d="M193,714.027a8.887,8.887,0,0,0,3.591-5.39c.047-.216.38-.132.334.084a9.244,9.244,0,0,1-3.749,5.6c-.182.127-.357-.169-.176-.3Z" transform="translate(-185.361 -528.432)" fill="#fff"/>
    <path id="Path_1341" data-name="Path 1341" d="M194.49,664.937a2.61,2.61,0,0,0,2.458-.3c.18-.129.356.167.176.3a2.925,2.925,0,0,1-2.719.341.178.178,0,0,1-.125-.209.173.173,0,0,1,.209-.125Z" transform="translate(-186.296 -498.197)" fill="#fff"/>
    <path id="Path_1342" data-name="Path 1342" d="M218.3,683.791c-.109.084-.221.168-.33.255a34.371,34.371,0,0,0-4.139,3.737c-.1.1-.2.209-.3.315l0,0a36.231,36.231,0,0,0-7.056,11.254l-.009.028c0,.009-.006.016-.009.025a35.638,35.638,0,0,0-1.566,5.113,42.2,42.2,0,0,1-1.286,5.16c-.09.252-.19.5-.3.741H189.462c.047-.246.1-.5.146-.741a49.919,49.919,0,0,1,3.282-10.494c.05-.112.1-.224.156-.336a33.725,33.725,0,0,1,2.681-4.78v0h0a29.56,29.56,0,0,1,1.806-2.395,24.638,24.638,0,0,1,5.829-5.057c.012-.009.028-.016.04-.025a19.57,19.57,0,0,1,14.508-2.887h0C218.046,683.732,218.17,683.76,218.3,683.791Z" transform="translate(-182.98 -511.073)" fill="#45c0be" opacity="0.45"/>
    <path id="Path_1343" data-name="Path 1343" d="M229.293,684.632c-.106.028-.212.059-.315.09A30.7,30.7,0,0,0,222.7,687.3c-.1.053-.2.109-.3.165a30.6,30.6,0,0,0-7.408,5.789.011.011,0,0,0,0,.006c-.025.025-.053.053-.075.078-.5.536-.978,1.093-1.432,1.666a13.318,13.318,0,0,0-2.124,3.559,7.372,7.372,0,0,0-.408,3.366c.009.115.025.227.04.343.012.09.025.181.04.274a15.81,15.81,0,0,1,.461,3.774,4.643,4.643,0,0,1-1.872,3.31,7.412,7.412,0,0,1-1.146.729,11.482,11.482,0,0,1-1.8.741h-1.224l.492-.14a15.008,15.008,0,0,0,1.722-.6,8.381,8.381,0,0,0,.934-.461,4.714,4.714,0,0,0,2.513-3.295,12.229,12.229,0,0,0-.4-3.84c-.037-.218-.072-.433-.09-.648a7.61,7.61,0,0,1,.265-3.257,12.164,12.164,0,0,1,1.981-3.631,25.952,25.952,0,0,1,1.707-2.04q.112-.126.234-.252a31.422,31.422,0,0,1,7.539-5.833h0a30.918,30.918,0,0,1,6.571-2.722h0c.1-.031.209-.062.311-.09C229.455,684.233,229.5,684.573,229.293,684.632Z" transform="translate(-193.991 -511.749)" fill="#fff"/>
    <path id="Path_1344" data-name="Path 1344" d="M232.322,699.918a4.611,4.611,0,0,1-.323-5.962c.135-.176.414.025.279.2a4.27,4.27,0,0,0,.312,5.545c.153.16-.116.375-.268.216Z" transform="translate(-211.624 -518.363)" fill="#fff"/>
    <path id="Path_1345" data-name="Path 1345" d="M222.345,736.111a8.888,8.888,0,0,0,6.113-2.141c.168-.144.383.124.216.268a9.244,9.244,0,0,1-6.365,2.215c-.222-.009-.183-.351.037-.342Z" transform="translate(-205.496 -545.934)" fill="#fff"/>
    <path id="Path_1346" data-name="Path 1346" d="M259.972,693.533a2.61,2.61,0,0,0,2.145,1.238c.222.006.183.348-.037.342a2.925,2.925,0,0,1-2.376-1.365.178.178,0,0,1,.026-.242A.173.173,0,0,1,259.972,693.533Z" transform="translate(-231.324 -518.074)" fill="#fff"/>
    <path id="Path_1347" data-name="Path 1347" d="M586.768,287.8a3.612,3.612,0,0,1-5.533.261l-11.771,5.12,1.147-6.571,11-3.854a3.632,3.632,0,0,1,5.155,5.045Z" transform="translate(-444.971 -234.113)" fill="#ffb8b8"/>
    <path id="Path_1348" data-name="Path 1348" d="M458.126,266.883l-27.341,12.179-.059-.021-31.161-11.1a10.264,10.264,0,0,1-4.6-13.314h0a10.253,10.253,0,0,1,14.632-4.558l23.19,13.969,22.487-2.914Z" transform="translate(-324.084 -211.114)" fill="#b3e5e4"/>
    <path id="Path_1349" data-name="Path 1349" d="M436.67,770.384a.369.369,0,0,1-.37.371H169.05a.371.371,0,0,1,0-.741H436.3a.369.369,0,0,1,.37.371Z" transform="translate(-168.67 -570.782)" fill="#ccc"/>
    <path id="Path_1350" data-name="Path 1350" d="M412.963,285.949,385.4,281.54a5.261,5.261,0,0,1-3.1-7.363l1.25-2.5-.485-26.266a19.457,19.457,0,0,1,9.447-17.02l2.688-1.607,1.358-3.449,12.525.305.036,4.524,4.485,7.152v.03l-.281,38.93-1.236,4.018,1.869,4.673Z" transform="translate(-315.568 -193.544)" fill="#b3e5e4"/>
    <circle id="Ellipse_94" data-name="Ellipse 94" cx="11.38" cy="11.38" r="11.38" transform="translate(76.998 8.742)" fill="#ffb8b8"/>
    <path id="Path_1351" data-name="Path 1351" d="M414.613,144.21a15.055,15.055,0,0,1,.008-4.882,13.665,13.665,0,0,1,5.784-9.489,4.166,4.166,0,0,1,2.075-.825,1.792,1.792,0,0,1,1.8,1.09,3.734,3.734,0,0,1,2.107-2.089,6.582,6.582,0,0,1,3-.4,10.961,10.961,0,0,1,9.144,6.536c.3.722,1.153-1.945,1.538-1.263a3.034,3.034,0,0,0,1.72,1.511c.755.211,1.061,3.32,1.358,2.595a3.456,3.456,0,0,1-3.3,4.819,19.034,19.034,0,0,1-2.261-.433,5.638,5.638,0,0,0-6.173,4.22,7.469,7.469,0,0,0-.983-2.186A2.528,2.528,0,0,0,428.4,142.3a2.84,2.84,0,0,0-1.952,1.122c-.5.588-.877,1.275-1.382,1.86-1.481,1.717-3.484,5.72-5.594,5.428C417.8,150.475,415.076,146.162,414.613,144.21Z" transform="translate(-338.088 -121.607)" fill="#2f2e41"/>
    <path id="Path_1352" data-name="Path 1352" d="M542.612,313.916a2.221,2.221,0,0,0-1.5-2.446l-30.646-10.207a2.221,2.221,0,0,0-.913-.1l-7.681.726-4.408.418-8.133.769a2.228,2.228,0,0,0-1.988,1.865l-4.13,25.8a2.238,2.238,0,0,0,1.4,2.428l30.966,11.953a2.164,2.164,0,0,0,.45.121,2.223,2.223,0,0,0,.677.005l20.009-2.966a2.217,2.217,0,0,0,1.876-1.868Z" transform="translate(-385.543 -247.402)" fill="#fff"/>
    <path id="Path_1353" data-name="Path 1353" d="M489.62,335.652,520.586,347.6a.278.278,0,0,0,.142.017l20.007-2.965a.275.275,0,0,0,.235-.234l4.023-26.49a.282.282,0,0,0-.187-.306l-.206-.07-30.442-10.135a.208.208,0,0,0-.043-.01.276.276,0,0,0-.072,0l-18.735,1.773-1.487.139a.281.281,0,0,0-.247.233l-4.129,25.8A.28.28,0,0,0,489.62,335.652Z" transform="translate(-389.849 -251.713)" fill="#45c0be"/>
    <path id="Path_1354" data-name="Path 1354" d="M508.282,309.18l18.735-1.773a.275.275,0,0,1,.072,0,.208.208,0,0,1,.043.01l30.442,10.135-8.03.85-3.005.317-8.551.9a.6.6,0,0,1-.075,0l-.049-.014Z" transform="translate(-402.831 -251.672)" fill="#2f2e41"/>
    <path id="Path_1355" data-name="Path 1355" d="M484.608,333.162l30.966,11.952a2.094,2.094,0,0,0,.452.118,2.25,2.25,0,0,0,.678.008l20.007-2.965a2.222,2.222,0,0,0,1.877-1.87l4.02-26.49a2.239,2.239,0,0,0-.13-1.157c-.02-.049-.041-.1-.065-.144a2.177,2.177,0,0,0-.7-.84,2.221,2.221,0,0,0-.6-.3l-.036-.013-30.609-10.195a2.789,2.789,0,0,0-.382-.093,2.206,2.206,0,0,0-.534-.01l-7.68.724-4.407.42-8.135.768a2.208,2.208,0,0,0-.94.311.412.412,0,0,0-.063.038.364.364,0,0,0-.04.031,2.226,2.226,0,0,0-.943,1.483l-4.132,25.8A2.24,2.24,0,0,0,484.608,333.162Zm3.283-28.138a1.65,1.65,0,0,1,.4-.832,1.45,1.45,0,0,1,.21-.205,1.656,1.656,0,0,1,.724-.338,1.267,1.267,0,0,1,.159-.022l13.7-1.294,6.529-.621c.044-.005.085,0,.126-.007a1.559,1.559,0,0,1,.3.022,1.289,1.289,0,0,1,.263.063L540.934,312l.069.025a1.668,1.668,0,0,1,1.057,1.806l-4.024,26.493a1.666,1.666,0,0,1-1.4,1.4l-20.01,2.965a1.686,1.686,0,0,1-.848-.1l-30.966-11.949a1.682,1.682,0,0,1-1.046-1.82Z" transform="translate(-385.54 -247.401)" fill="#3f3d56"/>
    <path id="Path_1356" data-name="Path 1356" d="M499.319,308.584a.273.273,0,0,1,.083-.12.324.324,0,0,1,.04-.027l.039-.018a.272.272,0,0,1,.194,0l.645.227,31.488,11.108,7.369-.779,4.124-.435,8.728-.924.78-.082.152-.017a.282.282,0,0,1,.3.2.235.235,0,0,1,.008.045.278.278,0,0,1-.171.287.309.309,0,0,1-.077.021l-1.062.111-8.6.909-3.005.317-8.551.9a.609.609,0,0,1-.075,0l-.049-.014L499.6,308.98l-.109-.039a.21.21,0,0,1-.068-.038A.284.284,0,0,1,499.319,308.584Z" transform="translate(-396.647 -252.356)" fill="#3f3d56"/>
    <path id="Path_1357" data-name="Path 1357" d="M588.4,375.417a.278.278,0,0,1-.231-.316l4.521-30a.278.278,0,0,1,.317-.234h0a.278.278,0,0,1,.231.316l-4.521,30a.278.278,0,0,1-.317.234Z" transform="translate(-457.848 -277.546)" fill="#3f3d56"/>
    <path id="Path_1358" data-name="Path 1358" d="M619.068,370.664l-3.007.317,3.517-29.75s4.015-.727,4.123-.435C623.767,340.97,619.1,370.474,619.068,370.664Z" transform="translate(-477.081 -274.691)" fill="#3f3d56"/>
    <path id="Path_1359" data-name="Path 1359" d="M331.071,182.533,330.99,196.1l24.017,9.152,8.625-11.585Z" transform="translate(-228.201 -125.965)" fill="#3f3d56"/>
    <path id="Path_1360" data-name="Path 1360" d="M600.411,300.939a1.651,1.651,0,0,0-.778-.541L568.99,290.191a1.593,1.593,0,0,0-.264-.064,1.56,1.56,0,0,0-.3-.022l.05-.311.307-.222,7.277-5.269,24.3,7.448.042,8.424Z" transform="translate(-444.277 -235.738)" fill="#3f3d56"/>
    <path id="Path_1361" data-name="Path 1361" d="M502.7,380.075a.472.472,0,0,1,.1.021l9.4,3.088a.467.467,0,0,1-.291.888l-9.4-3.088a.467.467,0,0,1,.19-.909Z" transform="translate(-398.582 -301.792)" fill="#fff"/>
    <circle id="Ellipse_95" data-name="Ellipse 95" cx="3.737" cy="3.737" r="3.737" transform="translate(138.232 127.513)" fill="#f2f2f2"/>
    <circle id="Ellipse_96" data-name="Ellipse 96" cx="3.737" cy="3.737" r="3.737" transform="translate(43.286 141.158)" fill="#f2f2f2"/>
    <circle id="Ellipse_97" data-name="Ellipse 97" cx="3.737" cy="3.737" r="3.737" transform="translate(120.837 18.116)" fill="#45c0be" opacity="0.45"/>
    <path id="Path_1362" data-name="Path 1362" d="M550.146,377.961a3.612,3.612,0,0,1-4.953-2.478l-12.771-1.29,4.213-5.171,11.482,2.018a3.632,3.632,0,0,1,2.03,6.921Z" transform="translate(-419.436 -294.177)" fill="#ffb8b8"/>
    <path id="Path_1363" data-name="Path 1363" d="M446.33,294.772l-29.8-2.746-.041-.047-21.752-24.924a10.264,10.264,0,0,1,2.5-13.865h0a10.253,10.253,0,0,1,14.992,3.179l13.4,23.525,21.04,8.454Z" transform="translate(-323.39 -212.921)" fill="#b3e5e4"/>
    <path id="Path_1364" data-name="Path 1364" d="M741.888,195.089c-.74-5.429-1.668-11.258-5.5-15.177a12.876,12.876,0,0,0-18.6.193,17.036,17.036,0,0,0-4.131,11.223,44.2,44.2,0,0,0,1.8,12.052,37.147,37.147,0,0,0,15.5-3.052,24.982,24.982,0,0,1,3.717-1.459c1.292-.329,2.212.5,3.414,1.075l.66-1.263c.54,1,2.212.707,2.818-.259A4.984,4.984,0,0,0,741.888,195.089Z" transform="translate(-544.389 -155.973)" fill="#2f2e41"/>
    <path id="Path_1365" data-name="Path 1365" d="M674.213,310.516l-21.76.465a3.442,3.442,0,1,0-1.538,4.85c2.886.164,25.464,3.369,26.811,1.3,1.367-2.1,8.665-9.494,8.665-9.494l-5.609-7.986Z" transform="translate(-497.794 -246.332)" fill="#9e616a"/>
    <circle id="Ellipse_98" data-name="Ellipse 98" cx="10.223" cy="10.223" r="10.223" transform="translate(171.471 24.04)" fill="#9e616a"/>
    <path id="Path_1366" data-name="Path 1366" d="M599.361,299.184" transform="translate(-465.559 -245.986)" fill="#45c0be"/>
    <path id="Path_1367" data-name="Path 1367" d="M751.615,270.866c-1.2-2.4-1.79-5.36-4.359-6.137-1.734-.525-8.75.262-10.33,1.148-2.629,1.474-.247,4.236-1.8,6.82-1.686,2.81-6.269,8.448-7.955,11.258-1.159,1.932,2.746,7.6,2.119,9.765a8.818,8.818,0,0,0,.411,6.576c.956,1.775-.427,3.346.534,5.119,1,1.843,2.226,8.736,1.3,10.615l-.623,1.868c6.18.363,11.377-7.02,17.519-7.8a9.519,9.519,0,0,0,4.367-1.331c1.852-1.3,2.584-3.671,3.041-5.89A49.615,49.615,0,0,0,751.615,270.866Z" transform="translate(-553.569 -222.163)" fill="#3f3d56"/>
    <path id="Path_1368" data-name="Path 1368" d="M782.081,337.566c-.861-2.35-2.419-12.623-2.419-12.623l-9.754-.286,4.769,11.762-13.014,18.218.068.111a3.442,3.442,0,1,0,2.887,3.657.238.238,0,0,0,.3-.051C766.364,356.538,782.942,339.916,782.081,337.566Z" transform="translate(-574.784 -263.613)" fill="#9e616a"/>
    <path id="Path_1369" data-name="Path 1369" d="M800.014,295.944a70,70,0,0,0-3.307-11.156,23.437,23.437,0,0,0-6.71-9.375,7.847,7.847,0,0,0-3.276-1.7,3.776,3.776,0,0,0-3.446.928c-1.369,1.44-.957,3.751-.455,5.673l4.441,17,12.826-1.36Z" transform="translate(-591.732 -228.385)" fill="#3f3d56"/>
    <path id="Path_1370" data-name="Path 1370" d="M733.677,193.909a35.481,35.481,0,0,0-1.654-7.3,11.792,11.792,0,0,0-4.355-5.829c-3.238-2.089-7.431-1.686-11.061-.484a16.78,16.78,0,0,0-7.528,4.612,9.73,9.73,0,0,0-2.356,8.479l11.618-2.745-.424.3a9.354,9.354,0,0,1,4.992,6.506,9.691,9.691,0,0,1-2.045,8.049l7.924-2.811c1.63-.578,3.375-1.245,4.342-2.728C734.25,198.241,733.99,195.962,733.677,193.909Z" transform="translate(-539.457 -158.228)" fill="#2f2e41"/>
  </g>
</svg>
